<svg width="20" height="20" viewBox="0 0 20 20" fill="none" xmlns="http://www.w3.org/2000/svg">
<g clip-path="url(#clip0)">
<path d="M18.4592 12.5638C18.1841 12.5638 17.9611 12.7868 17.9611 13.062V17.4846C17.9601 18.3096 17.2918 18.9781 16.4668 18.9789H2.49052C1.66553 18.9781 0.99718 18.3096 0.996207 17.4846V4.50449C0.99718 3.67971 1.66553 3.01116 2.49052 3.01018H6.91313C7.18826 3.01018 7.41124 2.7872 7.41124 2.51208C7.41124 2.23715 7.18826 2.01398 6.91313 2.01398H2.49052C1.11567 2.01553 0.00155657 3.12965 0 4.50449V17.4848C0.00155657 18.8596 1.11567 19.9737 2.49052 19.9753H16.4668C17.8416 19.9737 18.9558 18.8596 18.9573 17.4848V13.062C18.9573 12.7868 18.7343 12.5638 18.4592 12.5638V12.5638Z" fill="black"/>
<path d="M18.76 0.732339C17.8846 -0.143039 16.4654 -0.143039 15.59 0.732339L6.70352 9.61882C6.64262 9.67972 6.59865 9.75521 6.57569 9.8381L5.40709 14.057C5.35903 14.23 5.40787 14.4152 5.53473 14.5423C5.66179 14.6691 5.84702 14.718 6.01999 14.6701L10.2389 13.5013C10.3218 13.4783 10.3973 13.4344 10.4582 13.3735L19.3445 4.48679C20.2185 3.61083 20.2185 2.19279 19.3445 1.31683L18.76 0.732339ZM7.78885 9.94258L15.0618 2.66949L17.4073 5.01506L10.1342 12.2881L7.78885 9.94258ZM7.32032 10.8828L9.19424 12.7569L6.60215 13.475L7.32032 10.8828ZM18.6401 3.78245L18.1119 4.31071L15.7661 1.96495L16.2946 1.43669C16.7808 0.950454 17.5692 0.950454 18.0554 1.43669L18.6401 2.02118C19.1256 2.508 19.1256 3.29582 18.6401 3.78245V3.78245Z" fill="black"/>
</g>
<defs>
<clipPath id="clip0">
<rect width="20" height="20" fill="white"/>
</clipPath>
</defs>
</svg>
