<svg width="20" height="20" viewBox="0 0 20 20" fill="none" xmlns="http://www.w3.org/2000/svg">
<g clip-path="url(#clip0)">
<path d="M12.531 17.3104C12.7676 17.3104 12.9593 17.1187 12.9593 16.8822V8.35968C12.9593 8.12313 12.7676 7.93141 12.531 7.93141C12.2945 7.93141 12.1028 8.12313 12.1028 8.35968V16.8822C12.1028 17.1187 12.2945 17.3104 12.531 17.3104Z" fill="black"/>
<path d="M7.4434 17.3104C7.67995 17.3104 7.87167 17.1187 7.87167 16.8822V8.35968C7.87167 8.12313 7.67995 7.93141 7.4434 7.93141C7.20685 7.93141 7.01514 8.12313 7.01514 8.35968V16.8822C7.01514 17.1187 7.20685 17.3104 7.4434 17.3104Z" fill="black"/>
<path d="M15.6916 2.26126H13.6018V1.71305C13.6006 0.76735 12.8342 0.000988489 11.8887 -1.52588e-05H8.08567C7.13997 0.000988489 6.37361 0.76735 6.37261 1.71305V2.26126H4.28264C3.33694 2.26227 2.57058 3.02863 2.56958 3.97432V6.37261C2.56958 6.60916 2.7613 6.80088 2.99785 6.80088H3.79449V17.7302C3.79449 18.3539 4.01447 18.9287 4.41397 19.3491C4.80944 19.7671 5.36033 20.0028 5.93581 20H14.0386C14.614 20.0028 15.1649 19.7671 15.5602 19.3491C15.9599 18.9288 16.1799 18.3539 16.1799 17.7302V6.80088H16.9764C17.2129 6.80088 17.4046 6.60916 17.4046 6.37261V3.97432C17.4036 3.02863 16.6373 2.26227 15.6916 2.26126V2.26126ZM7.22914 1.71305C7.22964 1.24028 7.61291 0.857018 8.08567 0.856516H11.8887C12.3615 0.857018 12.7446 1.24028 12.7452 1.71305V2.26126H7.22914V1.71305ZM15.3234 17.7302C15.3234 18.5359 14.7708 19.1435 14.0386 19.1435H5.93581C5.20341 19.1435 4.65102 18.5359 4.65102 17.7302V6.80088H15.3234V17.7302ZM16.5481 5.94435H3.42611V3.97432C3.42661 3.50139 3.80988 3.1183 4.28264 3.11779H15.6916C16.1645 3.1183 16.5476 3.50139 16.5481 3.97432V5.94435Z" fill="black"/>
</g>
<defs>
<clipPath id="clip0">
<rect width="20" height="20" fill="white"/>
</clipPath>
</defs>
</svg>
